<?xml version="1.0" encoding="utf-8"?>
<!-- Generator: Adobe Illustrator 16.0.0, SVG Export Plug-In . SVG Version: 6.00 Build 0)  -->
<!DOCTYPE svg PUBLIC "-//W3C//DTD SVG 1.1//EN" "http://www.w3.org/Graphics/SVG/1.1/DTD/svg11.dtd">
<svg version="1.1" id="Layer_1" xmlns="http://www.w3.org/2000/svg" xmlns:xlink="http://www.w3.org/1999/xlink" x="0px" y="0px"
	 width="50px" height="50px" viewBox="0 0 50 50" enable-background="new 0 0 50 50" xml:space="preserve">
<rect x="26.537" y="27.359" fill="#2E6B9C" width="2.896" height="2.48"/>
<rect x="23.643" y="17.49" fill="#2E6B9C" width="2.894" height="2.48"/>
<rect x="20.802" y="22.398" fill="#2E6B9C" width="2.895" height="2.48"/>
<rect x="18.015" y="24.878" fill="#2E6B9C" width="2.895" height="2.481"/>
<rect x="15.174" y="37.284" fill="#2E6B9C" width="2.895" height="2.48"/>
<rect x="12.28" y="19.917" fill="#2E6B9C" width="2.894" height="2.481"/>
<rect x="6.536" y="17.463" fill="#2E6B9C" width="2.895" height="2.481"/>
<rect x="3.695" y="24.959" fill="#2E6B9C" width="2.895" height="2.482"/>
<rect x="29.323" y="12.474" fill="#2E6B9C" width="2.896" height="2.481"/>
<rect x="32.165" y="34.803" fill="#2E6B9C" width="2.894" height="2.481"/>
<rect x="40.804" y="19.944" fill="#2E6B9C" width="2.895" height="2.481"/>
<rect x="40.804" y="24.906" fill="#2E6B9C" width="2.895" height="2.48"/>
<rect x="23.643" y="5.085" fill="#F4EF7F" width="2.893" height="2.48"/>
<rect x="23.643" y="24.933" fill="#F4EF7F" width="2.894" height="2.48"/>
<rect x="18.015" y="34.803" fill="#F4EF7F" width="2.895" height="2.481"/>
<rect x="12.28" y="27.359" fill="#F4EF7F" width="2.894" height="2.48"/>
<rect x="26.536" y="9.993" fill="#F4EF7F" width="2.896" height="2.48"/>
<rect x="32.165" y="19.917" fill="#F4EF7F" width="2.894" height="2.481"/>
<rect x="29.323" y="22.398" fill="#F4EF7F" width="2.896" height="2.48"/>
<rect x="29.323" y="29.84" fill="#F4EF7F" width="2.896" height="2.482"/>
<rect x="29.323" y="34.803" fill="#F4EF7F" width="2.896" height="2.481"/>
<rect x="23.643" y="12.528" fill="#FFFFFF" width="2.893" height="2.481"/>
<rect x="6.536" y="22.425" fill="#FFFFFF" width="2.895" height="2.481"/>
<rect x="37.935" y="19.917" fill="#FFFFFF" width="2.896" height="2.481"/>
<rect x="20.802" y="7.512" fill="#5393CE" width="2.895" height="2.481"/>
<rect x="20.802" y="19.917" fill="#5393CE" width="2.895" height="2.481"/>
<rect x="20.802" y="34.803" fill="#5393CE" width="2.895" height="2.481"/>
<rect x="9.403" y="17.436" fill="#5393CE" width="2.895" height="2.481"/>
<rect x="9.403" y="27.359" fill="#5393CE" width="2.895" height="2.48"/>
<rect x="26.536" y="17.436" fill="#5393CE" width="2.896" height="2.481"/>
<rect x="32.165" y="29.84" fill="#5393CE" width="2.894" height="2.482"/>
<rect x="35.059" y="24.878" fill="#5393CE" width="2.896" height="2.481"/>
<rect x="37.935" y="14.955" fill="#5393CE" width="2.896" height="2.481"/>
<rect x="23.643" y="2.604" fill="#F89A40" width="2.893" height="2.481"/>
<rect x="23.643" y="42.294" fill="#F89A40" width="2.894" height="2.48"/>
<rect x="20.802" y="14.955" fill="#F89A40" width="2.895" height="2.481"/>
<rect x="15.174" y="22.398" fill="#F89A40" width="2.895" height="2.48"/>
<rect x="20.802" y="24.878" fill="#F89A40" width="2.895" height="2.481"/>
<rect x="15.174" y="29.84" fill="#F89A40" width="2.895" height="2.482"/>
<rect x="18.015" y="37.284" fill="#F89A40" width="2.895" height="2.48"/>
<rect x="6.536" y="19.944" fill="#F89A40" width="2.895" height="2.481"/>
<rect x="0.801" y="24.959" fill="#F89A40" width="2.895" height="2.482"/>
<rect x="15.174" y="9.993" fill="#F89A40" width="2.895" height="2.48"/>
<rect x="26.536" y="5.031" fill="#F89A40" width="2.896" height="2.481"/>
<rect x="26.537" y="12.474" fill="#F89A40" width="2.895" height="2.481"/>
<rect x="29.323" y="17.436" fill="#F89A40" width="2.896" height="2.481"/>
<rect x="29.323" y="27.359" fill="#F89A40" width="2.896" height="2.48"/>
<rect x="32.165" y="37.284" fill="#F89A40" width="2.894" height="2.48"/>
<rect x="43.644" y="17.517" fill="#F89A40" width="2.896" height="2.481"/>
<rect x="40.804" y="22.425" fill="#F89A40" width="2.895" height="2.481"/>
<rect x="23.643" y="10.047" fill="#223C6B" width="2.894" height="2.481"/>
<rect x="23.643" y="39.813" fill="#223C6B" width="2.894" height="2.48"/>
<rect x="29.432" y="47.256" fill="#223C6B" width="2.895" height="2.48"/>
<rect x="20.802" y="27.359" fill="#223C6B" width="2.895" height="2.48"/>
<rect x="12.28" y="22.398" fill="#223C6B" width="2.894" height="2.48"/>
<rect x="12.28" y="29.84" fill="#223C6B" width="2.894" height="2.482"/>
<rect x="3.695" y="17.517" fill="#223C6B" width="2.895" height="2.481"/>
<rect x="6.536" y="27.387" fill="#223C6B" width="2.895" height="2.481"/>
<rect x="15.174" y="7.512" fill="#223C6B" width="2.895" height="2.481"/>
<rect x="26.536" y="7.512" fill="#223C6B" width="2.896" height="2.481"/>
<rect x="26.537" y="14.955" fill="#223C6B" width="2.896" height="2.481"/>
<rect x="26.537" y="24.878" fill="#223C6B" width="2.896" height="2.481"/>
<rect x="35.059" y="17.436" fill="#223C6B" width="2.896" height="2.481"/>
<rect x="37.935" y="27.359" fill="#223C6B" width="2.896" height="2.48"/>
<rect x="43.644" y="24.959" fill="#223C6B" width="2.896" height="2.482"/>
<rect x="23.643" y="29.896" fill="#212124" width="2.894" height="2.48"/>
<rect x="18.015" y="12.474" fill="#212124" width="2.895" height="2.481"/>
<rect x="18.015" y="19.917" fill="#212124" width="2.895" height="2.481"/>
<rect x="18.015" y="32.322" fill="#212124" width="2.895" height="2.48"/>
<rect x="9.403" y="22.398" fill="#212124" width="2.895" height="2.48"/>
<rect x="43.644" y="22.479" fill="#212124" width="2.896" height="2.48"/>
<rect x="23.643" y="7.566" fill="#C04C2D" width="2.894" height="2.481"/>
<rect x="23.643" y="15.009" fill="#C04C2D" width="2.893" height="2.481"/>
<rect x="23.643" y="19.971" fill="#C04C2D" width="2.894" height="2.481"/>
<rect x="23.643" y="27.413" fill="#C04C2D" width="2.894" height="2.482"/>
<rect x="23.643" y="34.857" fill="#C04C2D" width="2.894" height="2.48"/>
<rect x="23.643" y="44.774" fill="#C04C2D" width="2.894" height="2.481"/>
<rect x="26.536" y="47.256" fill="#C04C2D" width="2.896" height="2.48"/>
<rect x="20.802" y="9.993" fill="#C04C2D" width="2.895" height="2.48"/>
<rect x="15.174" y="12.474" fill="#C04C2D" width="2.895" height="2.481"/>
<rect x="20.802" y="17.436" fill="#C04C2D" width="2.895" height="2.481"/>
<rect x="15.174" y="19.917" fill="#C04C2D" width="2.895" height="2.481"/>
<rect x="18.015" y="22.398" fill="#C04C2D" width="2.895" height="2.48"/>
<rect x="15.174" y="27.359" fill="#C04C2D" width="2.895" height="2.48"/>
<rect x="18.015" y="29.84" fill="#C04C2D" width="2.895" height="2.482"/>
<rect x="20.802" y="32.322" fill="#C04C2D" width="2.895" height="2.48"/>
<rect x="15.174" y="32.322" fill="#C04C2D" width="2.895" height="2.48"/>
<rect x="9.403" y="14.955" fill="#C04C2D" width="2.895" height="2.481"/>
<rect x="9.403" y="24.878" fill="#C04C2D" width="2.895" height="2.481"/>
<rect x="3.695" y="19.998" fill="#C04C2D" width="2.895" height="2.481"/>
<rect x="9.403" y="29.84" fill="#C04C2D" width="2.895" height="2.482"/>
<rect x="9.403" y="37.284" fill="#C04C2D" width="2.895" height="2.48"/>
<rect x="32.165" y="12.474" fill="#C04C2D" width="2.894" height="2.481"/>
<rect x="29.323" y="14.955" fill="#C04C2D" width="2.896" height="2.481"/>
<rect x="29.323" y="19.917" fill="#C04C2D" width="2.896" height="2.481"/>
<rect x="32.165" y="22.398" fill="#C04C2D" width="2.894" height="2.48"/>
<rect x="29.323" y="24.878" fill="#C04C2D" width="2.896" height="2.481"/>
<rect x="26.537" y="32.322" fill="#C04C2D" width="2.896" height="2.48"/>
<rect x="32.165" y="32.322" fill="#C04C2D" width="2.894" height="2.48"/>
<rect x="29.323" y="37.284" fill="#C04C2D" width="2.896" height="2.48"/>
<rect x="35.059" y="22.398" fill="#C04C2D" width="2.896" height="2.48"/>
<rect x="35.059" y="27.359" fill="#C04C2D" width="2.896" height="2.48"/>
<rect x="37.935" y="17.436" fill="#C04C2D" width="2.896" height="2.481"/>
<rect x="37.935" y="24.878" fill="#C04C2D" width="2.896" height="2.481"/>
<rect x="43.644" y="19.998" fill="#C04C2D" width="2.896" height="2.481"/>
<rect x="43.644" y="15.036" fill="#C04C2D" width="2.896" height="2.481"/>
<rect x="46.539" y="24.959" fill="#C04C2D" width="2.895" height="2.482"/>
<rect x="40.804" y="27.387" fill="#C04C2D" width="2.895" height="2.481"/>
<rect x="37.935" y="29.84" fill="#C04C2D" width="2.896" height="2.482"/>
<rect x="35.059" y="34.803" fill="#C04C2D" width="2.896" height="2.481"/>
<rect x="23.643" y="0.123" fill="#F1583C" width="2.893" height="2.481"/>
<rect x="26.536" y="44.774" fill="#F1583C" width="2.896" height="2.481"/>
<rect x="20.802" y="5.031" fill="#F1583C" width="2.895" height="2.481"/>
<rect x="18.015" y="9.993" fill="#F1583C" width="2.895" height="2.48"/>
<rect x="18.015" y="14.955" fill="#F1583C" width="2.895" height="2.481"/>
<rect x="18.015" y="27.359" fill="#F1583C" width="2.895" height="2.48"/>
<rect x="20.802" y="29.84" fill="#F1583C" width="2.895" height="2.482"/>
<rect x="12.28" y="24.878" fill="#F1583C" width="2.894" height="2.481"/>
<rect x="12.28" y="17.436" fill="#F1583C" width="2.894" height="2.481"/>
<rect x="3.695" y="22.479" fill="#F1583C" width="2.895" height="2.48"/>
<rect x="12.28" y="34.803" fill="#F1583C" width="2.894" height="2.481"/>
<rect x="29.323" y="9.993" fill="#F1583C" width="2.896" height="2.48"/>
<rect x="26.537" y="22.398" fill="#F1583C" width="2.896" height="2.48"/>
<rect x="32.165" y="24.878" fill="#F1583C" width="2.894" height="2.481"/>
<rect x="26.537" y="29.84" fill="#F1583C" width="2.896" height="2.482"/>
<rect x="29.323" y="32.322" fill="#F1583C" width="2.896" height="2.48"/>
<rect x="37.935" y="22.398" fill="#F1583C" width="2.896" height="2.48"/>
<rect x="40.804" y="17.463" fill="#F1583C" width="2.895" height="2.481"/>
<rect x="37.935" y="37.284" fill="#F1583C" width="2.896" height="2.48"/>
<rect x="15.174" y="24.878" width="2.895" height="2.481"/>
<rect x="12.28" y="37.284" width="2.894" height="2.48"/>
<rect x="26.537" y="34.803" width="2.896" height="2.481"/>
<rect x="35.059" y="29.84" width="2.896" height="2.482"/>
<rect x="32.165" y="9.993" width="2.894" height="2.48"/>
<rect x="23.643" y="22.452" fill="#3D994B" width="2.894" height="2.481"/>
<rect x="23.643" y="32.376" fill="#3D994B" width="2.894" height="2.481"/>
<rect x="23.643" y="37.332" fill="#3D994B" width="2.894" height="2.481"/>
<rect x="20.802" y="12.474" fill="#3D994B" width="2.895" height="2.481"/>
<rect x="18.015" y="17.436" fill="#3D994B" width="2.895" height="2.481"/>
<rect x="15.174" y="34.803" fill="#3D994B" width="2.895" height="2.481"/>
<rect x="9.403" y="19.917" fill="#3D994B" width="2.895" height="2.481"/>
<rect x="3.695" y="15.036" fill="#3D994B" width="2.895" height="2.481"/>
<rect x="6.536" y="24.906" fill="#3D994B" width="2.895" height="2.48"/>
<rect x="26.537" y="19.917" fill="#3D994B" width="2.896" height="2.481"/>
<rect x="32.165" y="27.359" fill="#3D994B" width="2.894" height="2.48"/>
<rect x="35.059" y="19.917" fill="#3D994B" width="2.896" height="2.481"/>
<rect x="35.059" y="37.284" fill="#3D994B" width="2.896" height="2.48"/>
<rect x="32.165" y="7.512" fill="#3D994B" width="2.894" height="2.481"/>
</svg>
