<?xml version="1.0" encoding="utf-8"?>
<!-- Generator: Adobe Illustrator 16.0.0, SVG Export Plug-In . SVG Version: 6.00 Build 0)  -->
<!DOCTYPE svg PUBLIC "-//W3C//DTD SVG 1.1//EN" "http://www.w3.org/Graphics/SVG/1.1/DTD/svg11.dtd">
<svg version="1.1" id="NASA_insignia_color" xmlns="http://www.w3.org/2000/svg" xmlns:xlink="http://www.w3.org/1999/xlink"
	 x="0px" y="0px" width="55px" height="45px" viewBox="0 0 55 45" enable-background="new 0 0 55 45" xml:space="preserve">
<path fill="#0066B3" d="M48.314,22.524c0,12.304-10.136,22.43-22.453,22.43c-12.316,0-22.452-10.126-22.452-22.43
	S13.546,0.094,25.862,0.094C38.178,0.094,48.314,10.221,48.314,22.524z"/>
<path fill="#FFFFFF" d="M30.927,34.33c9.566,3.935,7.934-6.015,2.813-13.661c-2.897-4.326-6.676-7.93-9.06-9.669
	c-7.935-5.791-12.774-2.249-7.203,9.107c1.804,3.679,4.123,6.161,5.933,8.501c1.383,1.787,4.076,2.681,3.127,3.529
	c-1.069,0.956-3.658-3.261-3.658-3.261c-1.913-2.304-3.734-4.765-5.612-8.141c-4.291-7.712-3.672-15.583,4.093-12.153
	c6.591,2.91,12.886,11.075,15.418,16.873c1.173,2.686,4.333,13.26-5.795,8.987"/>
<path fill="#EF3E42" d="M1.097,29.173c4.221-2.811,8.221-4.625,15.03-6.874c9.567-3.16,16.769-5.284,25.604-9.725
	c4.303-2.163,10.661-6.35,13.224-10.4c-0.734,1.5-2.964,4.499-3.996,5.791C38.974,22.974,13.438,22.124,1.265,29.331"/>
<path fill="#FFFFFF" d="M7.219,18.204c3.843,0.03,3.483-0.008,3.528,0.037c0.068,0,3.084,5.194,3.084,5.24
	c0,0.022-0.023-1.846-0.023-4.183c0-0.27-0.742-1.057-0.72-1.057c1.103,0,2.544,0.022,2.544,0.022
	c-0.54,0.629-0.648,0.578-0.653,0.967c-0.015,1.252-0.03,3.564,0,6.161c0.004,0.39,0.292,0.54,0.766,1.214H12.21
	c-1.148-1.911-3.251-5.497-3.241-5.486c0.016,0.017-0.045,2.249,0.022,4.047c0.022,0.595,0.292,0.788,0.789,1.328
	c0,0,0.57-0.015-2.769,0.022c1.013-0.54,0.878-1.214,0.877-1.236c-0.037-2.485-0.007-4.61-0.007-5.982
	c0-0.225-0.015-0.202-0.713-1.057"/>
<g>
	<path fill="#FFFFFF" d="M19.289,22.041c0.324-1.126,0.601-2.132,0.732-2.789c0.023-0.112-0.248-0.517-0.674-0.921l-0.031-0.063
		c2.062,0.007,4.217,0.018,4.217,0.018c0.562,1.372,1.845,5.217,2.813,7.578c0.255,0.625,0.698,0.742,0.698,0.742
		c-1.756-0.022-5.014-0.008-4.998-0.022c0.878-0.787,0.766-0.787,0.383-1.934h-2.747c-0.562,1.304,0.176,1.917,0.271,1.912
		c-0.625,0.032-2.746,0-2.746,0c1.148-0.81,1.081-1.057,1.081-1.057C18.603,24.382,18.968,23.154,19.289,22.041h1.126
		c-0.242,0.775-0.484,1.552-0.484,1.552h2.184l-1.215-3.103c0,0-0.242,0.775-0.484,1.551H19.289z"/>
</g>
<g>
	<path fill="#FFFFFF" d="M38.151,22.153c0.324-1.125,0.601-2.132,0.733-2.788c0.022-0.113-0.248-0.517-0.676-0.922l-0.03-0.063
		c2.062,0.007,4.217,0.018,4.217,0.018c0.562,1.372,1.846,5.217,2.813,7.578c0.256,0.624,0.698,0.742,0.698,0.742
		c-1.755-0.022-5.014-0.007-4.997-0.022c0.877-0.787,0.766-0.787,0.383-1.934h-2.746c-0.563,1.305,0.175,1.917,0.27,1.912
		c-0.625,0.031-2.746,0-2.746,0c1.148-0.81,1.081-1.057,1.081-1.057C37.465,24.495,37.832,23.266,38.151,22.153l1.126,0
		c-0.242,0.775-0.483,1.551-0.483,1.551h2.183l-1.215-3.103c0,0-0.242,0.776-0.484,1.552L38.151,22.153z"/>
</g>
<path fill="#FFFFFF" d="M34.607,20.31c-0.045-1.597,0-2.114,0-2.114c-0.698,0.562-0.345,0.491-2.093,0.202
	c-5.042-0.832-5.425,3.868-2.679,4.925c2.3,0.886,3.114,1.059,2.769,1.889c-0.113,0.27-2.206,1.259-4.367-0.742l0.045,2.789
	c0.27-0.278,1.013-0.787,1.013-0.787c0.022,0,2.341,1.022,4.434-0.045c3.219-1.642,1.612-4.298-1.823-5.352
	c-2.859-0.877-0.158-2.923,2.678-0.742"/>
<path fill="#EF3E42" d="M55,2.254c-3.422,10.151-17.129,17.988-28.668,25.473c-6.962,4.516-13.873,9.713-18.63,14.136
	c-1.254,1.166,0.255-0.437-0.225,0.056c6.64-7.645,14.277-12.198,18.498-15.065c7.139-4.85,11.198-6.071,23.512-17.415"/>
<path fill="#FFFFFF" d="M30.927,34.33c9.566,3.935,7.934-6.015,2.813-13.661c-2.897-4.326-6.471-7.758-9.06-9.669
	c-3.024-2.232-3.32-2.417-3.32-2.417c6.752,3.204,12.886,11.075,15.418,16.873c1.173,2.686,4.333,13.26-5.795,8.987"/>
<circle fill="#FFFFFF" cx="25.988" cy="2.132" r="0.183"/>
<circle fill="#FFFFFF" cx="27.212" cy="4.9" r="0.225"/>
<circle fill="#FFFFFF" cx="30.504" cy="9.426" r="0.225"/>
<circle fill="#FFFFFF" cx="25.257" cy="6.46" r="0.183"/>
<circle fill="#FFFFFF" cx="27.227" cy="7.5" r="0.183"/>
<circle fill="#FFFFFF" cx="24.624" cy="4.591" r="0.225"/>
<circle fill="#FFFFFF" cx="21.684" cy="6.404" r="0.183"/>
<circle fill="#FFFFFF" cx="22.218" cy="6.77" r="0.183"/>
<circle fill="#FFFFFF" cx="22.753" cy="7.135" r="0.183"/>
<circle fill="#FFFFFF" cx="21.937" cy="7.838" r="0.183"/>
<circle fill="#FFFFFF" cx="17.689" cy="10.817" r="0.183"/>
<circle fill="#FFFFFF" cx="18.476" cy="11.773" r="0.183"/>
<circle fill="#FFFFFF" cx="17.857" cy="27.205" r="0.183"/>
<circle fill="#FFFFFF" cx="17.927" cy="31.463" r="0.225"/>
<circle fill="#FFFFFF" cx="15.55" cy="33.642" r="0.183"/>
<circle fill="#FFFFFF" cx="12.61" cy="34.526" r="0.225"/>
<circle fill="#FFFFFF" cx="12.019" cy="32.559" r="0.225"/>
<circle fill="#FFFFFF" cx="11.723" cy="33.81" r="0.183"/>
<circle fill="#FFFFFF" cx="9.557" cy="32.77" r="0.183"/>
<circle fill="#FFFFFF" cx="17.125" cy="36.283" r="0.183"/>
<circle fill="#FFFFFF" cx="19.363" cy="34.611" r="0.225"/>
<circle fill="#FFFFFF" cx="19.658" cy="36.762" r="0.183"/>
<circle fill="#FFFFFF" cx="29.027" cy="34.709" r="0.183"/>
<circle fill="#FFFFFF" cx="24.666" cy="36.256" r="0.183"/>
<circle fill="#FFFFFF" cx="36.399" cy="38.476" r="0.183"/>
<circle fill="#FFFFFF" cx="37.313" cy="29.833" r="0.225"/>
<circle fill="#FFFFFF" cx="35.555" cy="31.055" r="0.183"/>
<circle fill="#FFFFFF" cx="37.285" cy="31.407" r="0.225"/>
<circle fill="#FFFFFF" cx="35.555" cy="33.585" r="0.183"/>
<circle fill="#FFFFFF" cx="40.141" cy="28.61" r="0.183"/>
<circle fill="#FFFFFF" cx="40.549" cy="29.72" r="0.225"/>
<circle fill="#FFFFFF" cx="43.7" cy="31.041" r="0.225"/>
<circle fill="#FFFFFF" cx="40.535" cy="33.388" r="0.183"/>
<circle fill="#FFFFFF" cx="42.561" cy="31.477" r="0.183"/>
<circle fill="#FFFFFF" cx="42.195" cy="34.428" r="0.183"/>
<g>
	<circle fill="#FFFFFF" cx="42.948" cy="29.523" r="0.281"/>
</g>
<g>
	<polygon fill="#FFFFFF" points="42.947,28.666 42.863,29.439 42.096,29.523 42.87,29.607 42.955,30.409 43.039,29.607 
		43.799,29.509 43.032,29.439 	"/>
</g>
<g>
	<circle fill="#FFFFFF" cx="40.978" cy="34.415" r="0.281"/>
</g>
<g>
	<polygon fill="#FFFFFF" points="40.978,33.557 40.894,34.33 40.127,34.415 40.901,34.499 40.985,35.3 41.069,34.499 41.829,34.4 
		41.062,34.33 	"/>
</g>
<g>
	<circle fill="#FFFFFF" cx="19.989" cy="11.197" r="0.281"/>
</g>
<g>
	<polygon fill="#FFFFFF" points="19.988,10.339 19.904,11.112 19.138,11.197 19.911,11.281 19.996,12.083 20.08,11.281 
		20.84,11.183 20.073,11.112 	"/>
</g>
<g>
	<circle fill="#FFFFFF" cx="30.455" cy="4.395" r="0.281"/>
</g>
<g>
	<polygon fill="#FFFFFF" points="30.456,3.538 30.371,4.311 29.604,4.395 30.377,4.479 30.462,5.28 30.547,4.479 31.306,4.38 
		30.54,4.311 	"/>
</g>
<g>
	<circle fill="#FFFFFF" cx="17.738" cy="38.912" r="0.281"/>
</g>
<g>
	<polygon fill="#FFFFFF" points="17.738,38.054 17.653,38.828 16.887,38.912 17.661,38.996 17.745,39.797 17.829,38.996 
		18.589,38.898 17.822,38.828 	"/>
</g>
<path fill="#EF3E42" d="M3.951,27.403c-1.229,0.602-2.33,1.195-3.263,1.775l0.568,0.207c0.817-0.502,1.797-1.028,2.831-1.489"/>
<path fill="#EF3E42" d="M10.438,38.762c-1.124,0.981-2.284,2.028-3.449,3.125l-0.052,0.774c1.067-1.098,2.376-2.284,3.887-3.542"/>
</svg>
